<?xml version="1.0" encoding="UTF-8" standalone="no"?>
<!-- Created with Inkscape (http://www.inkscape.org/) -->

<svg
   width="160.0291mm"
   height="160.02908mm"
   viewBox="0 0 160.0291 160.02908"
   version="1.1"
   id="svg8"
   xmlns:xlink="http://www.w3.org/1999/xlink"
   xmlns="http://www.w3.org/2000/svg"
   xmlns:svg="http://www.w3.org/2000/svg"
   xmlns:rdf="http://www.w3.org/1999/02/22-rdf-syntax-ns#"
   xmlns:cc="http://creativecommons.org/ns#"
   xmlns:dc="http://purl.org/dc/elements/1.1/">
  <defs
     id="defs2">
    <linearGradient
       id="linearGradient2801">
      <stop
         id="stop2799"
         offset="0"
         style="stop-color:#00ffff;stop-opacity:1" />
      <stop
         style="stop-color:#00c937;stop-opacity:1"
         offset="0.18881805"
         id="stop3016" />
      <stop
         style="stop-color:#00b57e;stop-opacity:1"
         offset="0.33964241"
         id="stop3014" />
      <stop
         id="stop2797"
         offset="0.76138955"
         style="stop-color:#0099bf;stop-opacity:1" />
      <stop
         id="stop2795"
         offset="1"
         style="stop-color:#0071ff;stop-opacity:1" />
    </linearGradient>
    <linearGradient
       id="linearGradient112557">
      <stop
         id="stop112555"
         offset="0"
         style="stop-color:#ffffff;stop-opacity:1;" />
    </linearGradient>
    <linearGradient
       id="linearGradient38375">
      <stop
         id="stop38373"
         offset="0"
         style="stop-color:#074c8e;stop-opacity:1;" />
    </linearGradient>
    <linearGradient
       id="linearGradient36989">
      <stop
         id="stop36987"
         offset="0"
         style="stop-color:#6b078e;stop-opacity:1;" />
    </linearGradient>
    <radialGradient
       xlink:href="#linearGradient2801"
       id="radialGradient1681"
       gradientUnits="userSpaceOnUse"
       gradientTransform="matrix(-0.06796551,-2.931047,2.9102923,-0.06748426,5627.9721,-5687.1311)"
       cx="-1099.7881"
       cy="-2394.9719"
       fx="-1099.7881"
       fy="-2394.9719"
       r="80.014503" />
  </defs>
  <metadata
     id="metadata5">
    <rdf:RDF>
      <cc:Work
         rdf:about="">
        <dc:format>image/svg+xml</dc:format>
        <dc:type
           rdf:resource="http://purl.org/dc/dcmitype/StillImage" />
        <dc:title />
      </cc:Work>
    </rdf:RDF>
  </metadata>
  <g
     id="layer1"
     transform="translate(1464.2181,1317.5695)">
    <g
       transform="translate(-17.956147,1160.2979)"
       id="layer1-0">
      <path
         style="fill:url(#radialGradient1681);fill-opacity:1;fill-rule:evenodd;stroke:#00fd00;stroke-width:0.029;stroke-miterlimit:4;stroke-dasharray:none;stroke-opacity:1"
         d="m -1429.047,-2477.8529 c -9.5292,0 -17.2005,7.6719 -17.2005,17.201 v 125.5986 c 0,9.5292 7.6713,17.2005 17.2005,17.2005 h 125.5991 c 9.5291,0 17.2005,-7.6713 17.2005,-17.2005 v -125.5986 c 0,-9.5291 -7.6714,-17.201 -17.2005,-17.201 z m 44.8035,130.2804 h 2.0712 v 6.4157 c 0.836,-1.0376 1.9892,-1.556 3.4597,-1.556 1.4705,0 2.6237,0.5559 3.4597,1.6681 0.8435,1.1122 1.2651,2.6349 1.2651,4.5682 v 0.1793 c 0,1.8512 -0.4255,3.3403 -1.2764,4.4675 -0.851,1.1196 -1.993,1.6794 -3.4262,1.6794 -1.5302,0 -2.7131,-0.5413 -3.5491,-1.6236 l -0.1008,1.3994 h -1.9032 z m 66.4068,0.6718 c 0.403,0 0.7087,0.1159 0.9177,0.3473 0.209,0.2314 0.3137,0.5152 0.3137,0.8511 0,0.3359 -0.1047,0.6158 -0.3137,0.8398 -0.209,0.2239 -0.5147,0.3359 -0.9177,0.3359 -0.4031,0 -0.7054,-0.112 -0.907,-0.3359 -0.2015,-0.224 -0.3023,-0.5039 -0.3023,-0.8398 0,-0.3284 0.1008,-0.6083 0.3023,-0.8397 0.2091,-0.2389 0.5114,-0.3587 0.907,-0.3587 z m -74.5355,4.1879 c 1.6496,0 2.982,0.571 3.9971,1.7131 1.0227,1.142 1.5338,2.6608 1.5338,4.5568 v 0.1457 c 0,1.1794 -0.2278,2.2392 -0.6832,3.1797 -0.4478,0.933 -1.0933,1.6608 -1.9368,2.1833 -0.836,0.5225 -1.7989,0.7839 -2.8887,0.7839 -1.6422,0 -2.9746,-0.571 -3.9972,-1.713 -1.0151,-1.1421 -1.5229,-2.6536 -1.5229,-4.5346 v -0.1458 c 0,-1.1868 0.2318,-2.2544 0.6945,-3.2024 0.4703,-0.9479 1.1197,-1.6791 1.9482,-2.1941 0.8361,-0.5151 1.7878,-0.7726 2.8552,-0.7726 z m 25.7519,0 c 1.575,0 2.7993,0.5184 3.6726,1.556 0.8734,1.0375 1.31,2.5233 1.31,4.4566 v 0.8619 h -8.2072 c 0.03,1.1943 0.3769,2.1611 1.0413,2.9001 0.6717,0.7315 1.5227,1.0971 2.5528,1.0971 0.7315,0 1.3512,-0.1495 1.8588,-0.448 0.5075,-0.2986 0.9515,-0.6939 1.3322,-1.1865 l 1.265,0.9849 c -1.0151,1.5601 -2.5379,2.3404 -4.5682,2.3404 -1.6421,0 -2.9779,-0.5374 -4.008,-1.6123 -1.0301,-1.0823 -1.5451,-2.5267 -1.5451,-4.333 v -0.3809 c 0,-1.2018 0.2273,-2.2727 0.6826,-3.2132 0.4628,-0.948 1.1049,-1.687 1.926,-2.2169 0.8286,-0.5375 1.7243,-0.8062 2.6872,-0.8062 z m 12.3052,0 c 0.4031,0 0.7087,0.052 0.9177,0.1566 v 1.926 c -0.3135,-0.052 -0.6527,-0.079 -1.0185,-0.079 -1.3585,0 -2.2805,0.5783 -2.7657,1.7353 v 8.599 h -2.0712 v -12.1145 h 2.0154 l 0.034,1.3994 c 0.6792,-1.0824 1.6421,-1.6232 2.8887,-1.6232 z m 8.4082,0 c 1.6945,0 2.8477,0.6494 3.4598,1.9482 0.4031,-0.5822 0.9259,-1.0525 1.5678,-1.4108 0.6494,-0.3583 1.4142,-0.5374 2.295,-0.5374 2.6573,0 4.0087,1.4069 4.0535,4.2209 v 8.1174 h -2.0717 v -7.9944 c 0,-0.8658 -0.1976,-1.5113 -0.5933,-1.9368 -0.3956,-0.4329 -1.0601,-0.6496 -1.9931,-0.6496 -0.7688,0 -1.4071,0.2318 -1.9146,0.6945 -0.5076,0.4554 -0.8021,1.0712 -0.8842,1.8475 v 8.0388 h -2.0826 v -7.9381 c 0,-1.7615 -0.8621,-2.6427 -2.5864,-2.6427 -1.3585,0 -2.2878,0.5788 -2.7879,1.7358 v 8.845 h -2.0717 v -12.1145 h 1.9595 l 0.056,1.3435 c 0.8882,-1.045 2.0862,-1.5673 3.594,-1.5673 z m 19.2247,0 c 1.3959,0 2.4892,0.3505 3.2804,1.0521 0.7913,0.6942 1.2021,1.6537 1.232,2.8779 v 5.5759 c 0,1.1122 0.1416,1.9967 0.4253,2.6536 v 0.1788 h -2.172 c -0.1194,-0.2389 -0.2168,-0.6644 -0.2914,-1.2764 -0.9629,1.0002 -2.1123,1.5006 -3.4484,1.5006 -1.1943,0 -2.1757,-0.3359 -2.9445,-1.0077 -0.7614,-0.6792 -1.1421,-1.538 -1.1421,-2.5755 0,-1.2615 0.4776,-2.239 1.433,-2.9332 0.9629,-0.7016 2.3138,-1.0526 4.053,-1.0526 h 2.0154 v -0.9519 c 0,-0.724 -0.2161,-1.2984 -0.6491,-1.7239 -0.4329,-0.4329 -1.0711,-0.6496 -1.9146,-0.6496 -0.7389,0 -1.3587,0.1864 -1.8588,0.5597 -0.5001,0.3732 -0.7503,0.825 -0.7503,1.3549 h -2.0826 c 0,-0.6046 0.2128,-1.1868 0.6382,-1.7466 0.433,-0.5673 1.0152,-1.0152 1.7467,-1.3436 0.739,-0.3285 1.549,-0.4925 2.4298,-0.4925 z m 18.0154,0 c 1.575,0 2.7988,0.5184 3.6722,1.556 0.8733,1.0375 1.31,2.5233 1.31,4.4566 v 0.8619 h -8.2068 c 0.03,1.1943 0.377,2.1611 1.0413,2.9001 0.6718,0.7315 1.5228,1.0971 2.5528,1.0971 0.7315,0 1.3507,-0.1495 1.8583,-0.448 0.5076,-0.2986 0.9521,-0.6939 1.3328,-1.1865 l 1.265,0.9849 c -1.0152,1.5601 -2.5379,2.3404 -4.5682,2.3404 -1.6422,0 -2.9785,-0.5374 -4.0085,-1.6123 -1.0301,-1.0823 -1.5452,-2.5267 -1.5452,-4.333 v -0.3809 c 0,-1.2018 0.2279,-2.2727 0.6832,-3.2132 0.4628,-0.948 1.1049,-1.687 1.926,-2.2169 0.8285,-0.5375 1.7242,-0.8062 2.6871,-0.8062 z m 12.3047,0 c 0.4031,0 0.7093,0.052 0.9183,0.1566 v 1.926 c -0.3135,-0.052 -0.6533,-0.079 -1.019,-0.079 -1.3586,0 -2.2801,0.5783 -2.7652,1.7353 v 8.599 h -2.0718 v -12.1145 h 2.0154 l 0.034,1.3994 c 0.6793,-1.0824 1.6422,-1.6232 2.8887,-1.6232 z m -22.4715,0.2238 h 2.0717 v 13.5144 c 0,2.3289 -1.0563,3.4933 -3.1688,3.4933 -0.4553,0 -0.8769,-0.067 -1.265,-0.2015 v -1.6573 c 0.2389,0.06 0.5524,0.089 0.9405,0.089 0.4628,0 0.8133,-0.1265 1.0521,-0.3803 0.2464,-0.2464 0.3695,-0.6796 0.3695,-1.2992 z m -73.5386,1.4779 c -1.0227,0 -1.8478,0.407 -2.4748,1.2206 -0.627,0.8136 -0.9405,1.9781 -0.9405,3.4933 0,1.3436 0.3101,2.4219 0.9296,3.2355 0.627,0.8136 1.4629,1.2206 2.5079,1.2206 1.0525,0 1.8883,-0.4104 2.5078,-1.2315 0.6196,-0.8285 0.9297,-1.9857 0.9297,-3.4711 0,-1.3286 -0.3174,-2.4035 -0.9519,-3.2246 -0.627,-0.8285 -1.4628,-1.2428 -2.5078,-1.2428 z m 25.7519,0 c -0.836,0 -1.5375,0.3062 -2.1048,0.9183 -0.5673,0.6046 -0.9183,1.4555 -1.0526,2.5528 h 6.0683 v -0.1571 c -0.06,-1.0525 -0.343,-1.8659 -0.8506,-2.4407 -0.5076,-0.5822 -1.1945,-0.8733 -2.0603,-0.8733 z m 57.9535,0 c -0.836,0 -1.538,0.3062 -2.1052,0.9183 -0.5673,0.6046 -0.9178,1.4555 -1.0522,2.5528 h 6.0684 v -0.1571 c -0.06,-1.0525 -0.3435,-1.8659 -0.8511,-2.4407 -0.5076,-0.5822 -1.194,-0.8733 -2.0599,-0.8733 z m -70.561,0.056 c -1.366,0 -2.3474,0.6348 -2.9445,1.9038 v 5.24 c 0.6344,1.2689 1.6236,1.9032 2.9672,1.9032 0.9928,0 1.7653,-0.3846 2.3177,-1.1534 0.5524,-0.7688 0.8284,-1.9255 0.8284,-3.4706 0,-1.4108 -0.2726,-2.5007 -0.8175,-3.2696 -0.5449,-0.7688 -1.3287,-1.1534 -2.3513,-1.1534 z m 53.3631,4.7026 c -2.5379,0 -3.807,0.7428 -3.807,2.2283 0,0.6494 0.2167,1.1571 0.6496,1.5229 0.4329,0.3657 0.9889,0.5482 1.6681,0.5482 0.6494,0 1.2652,-0.1679 1.8475,-0.5038 0.5822,-0.3359 1.0037,-0.7726 1.265,-1.31 v -2.4856 z"
         id="rect1483" />
    </g>
  </g>
</svg>
